<svg width="78" height="78" viewBox="0 0 78 78" fill="none" xmlns="http://www.w3.org/2000/svg">
<g clip-path="url(#clip0_103_70)">
<path d="M0 39C0 17.4609 17.4609 0 39 0C60.5391 0 78 17.4609 78 39C78 60.5391 60.5391 78 39 78C17.4609 78 0 60.5391 0 39Z" fill="#2BF2F1"/>
<path d="M38.0315 37.6558L38.3136 37.6662L38.9506 29.6452H57.2806L58.5078 18.8305L25.9753 18.8357C25.9753 18.8357 25.3136 21.7763 25.1511 23.7679C24.4686 32.0736 29.7934 37.414 38.0315 37.6558Z" fill="#082422"/>
<path d="M23.9421 55.8506L23.6366 62.3337H36.6093L37.6545 49.3467L47.7672 49.3948L49.062 38.0913H43.9751C33.4386 38.0913 24.3152 44.6875 23.9408 55.8506H23.9421Z" fill="#082422"/>
</g>
<defs>
<clipPath id="clip0_103_70">
<rect width="78" height="78" fill="white"/>
</clipPath>
</defs>
</svg>
